<svg width="120" height="120" viewBox="0 0 120 120" fill="none" xmlns="http://www.w3.org/2000/svg">
  <circle cx="60" cy="60" r="50" fill="#FFF2E6"/>
  <path d="M41.25 35V85H47.5V67.5H70.625C78.13 67.5 84.375 61.255 84.375 53.75C84.375 46.245 78.13 40 70.625 40H47.5V35H41.25ZM47.5 46.25H70.625C74.68 46.25 78.125 49.695 78.125 53.75C78.125 57.805 74.68 61.25 70.625 61.25H47.5V46.25Z" fill="#F97316"/>
  <path d="M34.375 35V45C34.375 50.18 36.595 54.875 40.31 58.125C36.595 61.375 34.375 66.07 34.375 71.25V85H40.625V71.25C40.625 66.07 44.695 61.875 50 61.875V35H34.375Z" fill="#F97316"/>
</svg>