<svg width="120" height="120" viewBox="0 0 120 120" fill="none" xmlns="http://www.w3.org/2000/svg">
  <circle cx="60" cy="60" r="50" fill="#F0E6FF"/>
  <path d="M83.75 43.75H36.25C30.73 43.75 26.25 48.23 26.25 53.75V71.25C26.25 76.77 30.73 81.25 36.25 81.25H83.75C89.27 81.25 93.75 76.77 93.75 71.25V53.75C93.75 48.23 89.27 43.75 83.75 43.75ZM48.75 68.75H45V72.5H41.25V68.75H37.5V65H41.25V61.25H45V65H48.75V68.75ZM60 72.5C57.24 72.5 55 70.26 55 67.5C55 64.74 57.24 62.5 60 62.5C62.76 62.5 65 64.74 65 67.5C65 70.26 62.76 72.5 60 72.5ZM76.25 57.5C73.49 57.5 71.25 55.26 71.25 52.5C71.25 49.74 73.49 47.5 76.25 47.5C79.01 47.5 81.25 49.74 81.25 52.5C81.25 55.26 79.01 57.5 76.25 57.5Z" fill="#8B5CF6"/>
</svg>