<svg width="120" height="120" viewBox="0 0 120 120" fill="none" xmlns="http://www.w3.org/2000/svg">
  <circle cx="60" cy="60" r="50" fill="#E6FFE6"/>
  <path d="M46.25 46.25C46.25 41.25 50.3 37.5 55 37.5C59.7 37.5 63.75 41.25 63.75 46.25C63.75 51.25 59.7 55 55 55C50.3 55 46.25 51.25 46.25 46.25Z" fill="#10B981"/>
  <path d="M65 46.25C65 41.25 69.05 37.5 73.75 37.5C78.45 37.5 82.5 41.25 82.5 46.25C82.5 51.25 78.45 55 73.75 55C69.05 55 65 51.25 65 46.25Z" fill="#10B981"/>
  <path d="M82.5 57.5H65C65 62.5 61.17 67.5 55 67.5C48.83 67.5 45 62.5 45 57.5H27.5C27.5 67.5 38.02 75 47.5 75L42.5 85H50L55 75L60 85H67.5L62.5 75C71.98 75 82.5 67.5 82.5 57.5Z" fill="#10B981"/>
</svg>