<svg width="120" height="120" viewBox="0 0 120 120" fill="none" xmlns="http://www.w3.org/2000/svg">
  <circle cx="60" cy="60" r="50" fill="#E6F4FF"/>
  <path d="M60 25C40.67 25 25 40.67 25 60C25 79.33 40.67 95 60 95C79.33 95 95 79.33 95 60C95 40.67 79.33 25 60 25ZM43.75 81.92C38.22 78.17 34.48 72.51 33.19 66.25L41.25 58.19V66.25C41.25 70.08 42.81 73.83 45.94 76.52L43.75 81.92ZM81.92 76.25C76.51 81.42 69.08 84.38 61.25 84.38C59.03 84.38 56.82 84.12 54.69 83.61L60 73.75L73.75 60L81.25 67.5L81.92 76.25ZM72.19 53.75L60 41.56L67.5 34.06C73.83 36.89 78.93 41.96 81.81 48.28L72.19 53.75Z" fill="#3B82F6"/>
</svg>