<svg width="120" height="120" viewBox="0 0 120 120" fill="none" xmlns="http://www.w3.org/2000/svg">
  <circle cx="60" cy="60" r="50" fill="#E6F4FF"/>
  <path d="M92.5 35H27.5C25.43 35 23.75 36.68 23.75 38.75V76.25C23.75 78.32 25.43 80 27.5 80H58.75V88.75H48.75V92.5H71.25V88.75H61.25V80H92.5C94.57 80 96.25 78.32 96.25 76.25V38.75C96.25 36.68 94.57 35 92.5 35ZM92.5 76.25H27.5V38.75H92.5V76.25Z" fill="#3B82F6"/>
  <path d="M60 66.25C63.452 66.25 66.25 63.452 66.25 60C66.25 56.548 63.452 53.75 60 53.75C56.548 53.75 53.75 56.548 53.75 60C53.75 63.452 56.548 66.25 60 66.25Z" fill="#3B82F6"/>
  <path d="M43.75 57.5C45.8211 57.5 47.5 55.8211 47.5 53.75C47.5 51.6789 45.8211 50 43.75 50C41.6789 50 40 51.6789 40 53.75C40 55.8211 41.6789 57.5 43.75 57.5Z" fill="#3B82F6"/>
  <path d="M76.25 57.5C78.3211 57.5 80 55.8211 80 53.75C80 51.6789 78.3211 50 76.25 50C74.1789 50 72.5 51.6789 72.5 53.75C72.5 55.8211 74.1789 57.5 76.25 57.5Z" fill="#3B82F6"/>
</svg>