<svg width="180" height="40" viewBox="0 0 180 40" fill="none" xmlns="http://www.w3.org/2000/svg">
  <path d="M26.6667 5H13.3333C8.73096 5 5 8.73096 5 13.3333V26.6667C5 31.269 8.73096 35 13.3333 35H26.6667C31.269 35 35 31.269 35 26.6667V13.3333C35 8.73096 31.269 5 26.6667 5Z" fill="#3B82F6"/>
  <path d="M20 13.3333C23.3137 13.3333 26 16.0196 26 19.3333C26 22.647 23.3137 25.3333 20 25.3333C16.6863 25.3333 14 22.647 14 19.3333C14 16.0196 16.6863 13.3333 20 13.3333ZM20 15.3333C17.7909 15.3333 16 17.1242 16 19.3333C16 21.5424 17.7909 23.3333 20 23.3333C22.2091 23.3333 24 21.5424 24 19.3333C24 17.1242 22.2091 15.3333 20 15.3333Z" fill="white"/>
  <path d="M12 22.6667C12 24.8758 13.7909 26.6667 16 26.6667H24C26.2091 26.6667 28 24.8758 28 22.6667V16.6667C28 14.4575 26.2091 12.6667 24 12.6667H16C13.7909 12.6667 12 14.4575 12 16.6667V22.6667ZM14 16.6667C14 15.5621 14.8954 14.6667 16 14.6667H24C25.1046 14.6667 26 15.5621 26 16.6667V22.6667C26 23.7712 25.1046 24.6667 24 24.6667H16C14.8954 24.6667 14 23.7712 14 22.6667V16.6667Z" fill="white"/>
  <path d="M51.312 27V12.6H55.728V23.184H62.784V27H51.312ZM68.0045 27.336C66.9325 27.336 65.9805 27.136 65.1485 26.736C64.3165 26.32 63.6605 25.736 63.1805 24.984C62.7165 24.232 62.4845 23.36 62.4845 22.368C62.4845 21.392 62.7245 20.528 63.2045 19.776C63.6845 19.024 64.3485 18.44 65.1965 18.024C66.0445 17.608 67.0125 17.4 68.1005 17.4C69.1725 17.4 70.1245 17.6 70.9565 18C71.7885 18.4 72.4365 18.976 72.9005 19.728C73.3805 20.48 73.6205 21.352 73.6205 22.344C73.6205 23.32 73.3805 24.184 72.9005 24.936C72.4205 25.688 71.7565 26.272 70.9085 26.688C70.0765 27.12 69.1085 27.336 68.0045 27.336ZM68.0045 24.048C68.5325 24.048 68.9805 23.888 69.3485 23.568C69.7325 23.232 69.9245 22.768 69.9245 22.176C69.9245 21.584 69.7325 21.128 69.3485 20.808C68.9805 20.472 68.5325 20.304 68.0045 20.304C67.4765 20.304 67.0285 20.472 66.6605 20.808C66.2925 21.128 66.1085 21.584 66.1085 22.176C66.1085 22.768 66.2925 23.232 66.6605 23.568C67.0285 23.888 67.4765 24.048 68.0045 24.048ZM81.8959 27.336C80.8239 27.336 79.8719 27.136 79.0399 26.736C78.2079 26.32 77.5519 25.736 77.0719 24.984C76.6079 24.232 76.3759 23.36 76.3759 22.368C76.3759 21.392 76.6159 20.528 77.0959 19.776C77.5759 19.024 78.2399 18.44 79.0879 18.024C79.9359 17.608 80.9039 17.4 81.9919 17.4C83.0639 17.4 84.0159 17.6 84.8479 18C85.6799 18.4 86.3279 18.976 86.7919 19.728C87.2719 20.48 87.5119 21.352 87.5119 22.344C87.5119 23.32 87.2719 24.184 86.7919 24.936C86.3119 25.688 85.6479 26.272 84.7999 26.688C83.9679 27.12 82.9999 27.336 81.8959 27.336ZM81.8959 24.048C82.4239 24.048 82.8719 23.888 83.2399 23.568C83.6239 23.232 83.8159 22.768 83.8159 22.176C83.8159 21.584 83.6239 21.128 83.2399 20.808C82.8719 20.472 82.4239 20.304 81.8959 20.304C81.3679 20.304 80.9199 20.472 80.5519 20.808C80.1839 21.128 79.9999 21.584 79.9999 22.176C79.9999 22.768 80.1839 23.232 80.5519 23.568C80.9199 23.888 81.3679 24.048 81.8959 24.048ZM95.0873 17.4C96.1113 17.4 97.0233 17.608 97.8233 18.024C98.6393 18.424 99.2793 19 99.7433 19.752C100.207 20.504 100.439 21.368 100.439 22.344C100.439 23.32 100.207 24.184 99.7433 24.936C99.2793 25.688 98.6393 26.272 97.8233 26.688C97.0233 27.104 96.1113 27.312 95.0873 27.312C94.0793 27.312 93.2393 27.104 92.5673 26.688V31.056H88.9673V17.4H92.5673V18.048C93.2393 17.616 94.0793 17.4 95.0873 17.4ZM94.2233 24.144C94.7673 24.144 95.2073 23.984 95.5433 23.664C95.8953 23.328 96.0713 22.864 96.0713 22.272C96.0713 21.68 95.8953 21.224 95.5433 20.904C95.2073 20.568 94.7673 20.4 94.2233 20.4C93.6953 20.4 93.2633 20.568 92.9273 20.904C92.5913 21.224 92.4233 21.68 92.4233 22.272C92.4233 22.864 92.5913 23.328 92.9273 23.664C93.2633 23.984 93.6953 24.144 94.2233 24.144ZM114.44 17.4V27H110.84V25.632C110.184 26.768 109.056 27.336 107.456 27.336C106.512 27.336 105.672 27.136 104.936 26.736C104.2 26.32 103.624 25.736 103.208 24.984C102.792 24.216 102.584 23.336 102.584 22.344C102.584 21.352 102.792 20.48 103.208 19.728C103.624 18.976 104.2 18.4 104.936 18C105.672 17.6 106.512 17.4 107.456 17.4C108.96 17.4 110.048 17.936 110.72 19.008V17.4H114.44ZM108.344 24.144C108.872 24.144 109.304 23.984 109.64 23.664C109.992 23.328 110.168 22.864 110.168 22.272C110.168 21.68 109.992 21.224 109.64 20.904C109.304 20.568 108.872 20.4 108.344 20.4C107.816 20.4 107.376 20.568 107.024 20.904C106.688 21.224 106.52 21.68 106.52 22.272C106.52 22.864 106.688 23.328 107.024 23.664C107.376 23.984 107.816 24.144 108.344 24.144ZM121.911 27.336C120.839 27.336 119.887 27.136 119.055 26.736C118.223 26.32 117.567 25.736 117.087 24.984C116.623 24.232 116.391 23.36 116.391 22.368C116.391 21.392 116.631 20.528 117.111 19.776C117.591 19.024 118.255 18.44 119.103 18.024C119.951 17.608 120.919 17.4 122.007 17.4C123.079 17.4 124.031 17.6 124.863 18C125.695 18.4 126.343 18.976 126.807 19.728C127.287 20.48 127.527 21.352 127.527 22.344C127.527 23.32 127.287 24.184 126.807 24.936C126.327 25.688 125.663 26.272 124.815 26.688C123.983 27.12 123.015 27.336 121.911 27.336ZM121.911 24.048C122.439 24.048 122.887 23.888 123.255 23.568C123.639 23.232 123.831 22.768 123.831 22.176C123.831 21.584 123.639 21.128 123.255 20.808C122.887 20.472 122.439 20.304 121.911 20.304C121.383 20.304 120.935 20.472 120.567 20.808C120.199 21.128 120.015 21.584 120.015 22.176C120.015 22.768 120.199 23.232 120.567 23.568C120.935 23.888 121.383 24.048 121.911 24.048ZM133.803 27.336C132.731 27.336 131.779 27.136 130.947 26.736C130.115 26.32 129.459 25.736 128.979 24.984C128.515 24.232 128.283 23.36 128.283 22.368C128.283 21.392 128.523 20.528 129.003 19.776C129.483 19.024 130.147 18.44 130.995 18.024C131.843 17.608 132.811 17.4 133.899 17.4C134.971 17.4 135.923 17.6 136.755 18C137.587 18.4 138.235 18.976 138.699 19.728C139.179 20.48 139.419 21.352 139.419 22.344C139.419 23.32 139.179 24.184 138.699 24.936C138.219 25.688 137.555 26.272 136.707 26.688C135.875 27.12 134.907 27.336 133.803 27.336ZM133.803 24.048C134.331 24.048 134.779 23.888 135.147 23.568C135.531 23.232 135.723 22.768 135.723 22.176C135.723 21.584 135.531 21.128 135.147 20.808C134.779 20.472 134.331 20.304 133.803 20.304C133.275 20.304 132.827 20.472 132.459 20.808C132.091 21.128 131.907 21.584 131.907 22.176C131.907 22.768 132.091 23.232 132.459 23.568C132.827 23.888 133.275 24.048 133.803 24.048ZM140.994 27V17.4H144.594V18.768C145.25 17.632 146.378 17.064 147.978 17.064C148.922 17.064 149.762 17.272 150.498 17.688C151.234 18.088 151.802 18.664 152.202 19.416C152.618 20.168 152.826 21.04 152.826 22.032C152.826 23.024 152.618 23.904 152.202 24.672C151.802 25.424 151.234 26.008 150.498 26.424C149.762 26.824 148.922 27.024 147.978 27.024C146.474 27.024 145.386 26.488 144.714 25.416V27H140.994ZM147.09 23.904C147.618 23.904 148.05 23.744 148.386 23.424C148.738 23.088 148.914 22.624 148.914 22.032C148.914 21.44 148.738 20.984 148.386 20.664C148.05 20.328 147.618 20.16 147.09 20.16C146.562 20.16 146.122 20.328 145.77 20.664C145.434 20.984 145.266 21.44 145.266 22.032C145.266 22.624 145.434 23.088 145.77 23.424C146.122 23.744 146.562 23.904 147.09 23.904ZM154.658 27V13.344H158.282V18.768C158.938 17.632 160.066 17.064 161.666 17.064C162.61 17.064 163.45 17.272 164.186 17.688C164.922 18.088 165.49 18.664 165.89 19.416C166.306 20.168 166.514 21.04 166.514 22.032C166.514 23.024 166.306 23.904 165.89 24.672C165.49 25.424 164.922 26.008 164.186 26.424C163.45 26.824 162.61 27.024 161.666 27.024C160.162 27.024 159.074 26.488 158.402 25.416V27H154.658ZM160.778 23.904C161.306 23.904 161.738 23.744 162.074 23.424C162.426 23.088 162.602 22.624 162.602 22.032C162.602 21.44 162.426 20.984 162.074 20.664C161.738 20.328 161.306 20.16 160.778 20.16C160.25 20.16 159.81 20.328 159.458 20.664C159.122 20.984 158.954 21.44 158.954 22.032C158.954 22.624 159.122 23.088 159.458 23.424C159.81 23.744 160.25 23.904 160.778 23.904ZM170.845 31.152C170.189 31.152 169.541 31.072 168.901 30.912C168.277 30.768 167.765 30.56 167.365 30.288L168.373 27.648C168.645 27.824 168.965 27.96 169.333 28.056C169.717 28.152 170.085 28.2 170.437 28.2C170.965 28.2 171.349 28.096 171.589 27.888C171.845 27.696 171.973 27.416 171.973 27.048V17.4H175.645V27.12C175.645 28.432 175.221 29.424 174.373 30.096C173.541 30.8 172.365 31.152 170.845 31.152Z" fill="#3B82F6"/>
</svg>